<?xml version="1.0" encoding="UTF-8" ?>
<!DOCTYPE svg PUBLIC "-//W3C//DTD SVG 1.1//EN" "http://www.w3.org/Graphics/SVG/1.1/DTD/svg11.dtd">
<svg width="446pt" height="180pt" viewBox="0 0 446 180" version="1.1" xmlns="http://www.w3.org/2000/svg">
<g id="#1b86caff">
<path fill="#1b86ca" opacity="1.00" d=" M 86.50 18.71 C 92.72 17.28 99.15 15.09 105.58 16.60 C 113.68 18.29 119.42 26.06 120.34 34.01 C 120.97 39.40 117.66 44.38 113.33 47.27 C 106.99 51.63 100.07 55.22 92.90 58.00 C 90.30 59.12 85.69 58.63 85.64 55.04 C 86.41 50.09 91.70 47.11 92.19 41.99 C 92.44 38.41 88.99 36.09 85.89 35.38 C 75.83 32.93 64.84 39.74 61.61 49.39 C 59.37 56.12 62.45 63.81 68.14 67.81 C 72.66 71.26 78.59 71.69 84.06 71.70 C 91.82 71.81 99.43 70.18 106.96 68.53 C 115.97 66.51 125.52 64.88 134.57 67.57 C 142.30 69.72 149.20 74.71 153.61 81.42 C 159.94 90.90 161.50 103.22 158.38 114.12 C 156.45 121.13 152.57 127.44 148.23 133.20 C 148.20 130.05 149.73 127.16 149.98 124.04 C 151.28 114.40 150.59 103.96 145.54 95.43 C 140.32 86.69 129.84 82.51 120.00 82.38 C 108.91 82.34 98.23 85.74 87.41 87.72 C 81.28 88.85 75.20 90.25 69.01 91.06 C 68.68 91.19 68.01 91.45 67.67 91.59 L 67.27 91.30 C 59.63 92.67 51.80 93.80 44.04 93.08 C 32.90 91.96 23.69 81.29 24.52 70.07 C 24.81 64.01 27.41 58.43 30.02 53.07 C 32.71 47.54 34.60 41.69 36.82 35.97 C 39.79 29.13 44.52 22.72 51.30 19.28 C 57.31 16.10 64.46 15.87 70.96 17.49 C 75.99 18.89 81.31 19.91 86.50 18.71 Z" />
</g>
<g id="#bf0008ff">
<path fill="#bf0008" opacity="1.00" d=" M 18.68 51.08 C 19.65 49.60 20.55 48.06 21.79 46.78 C 21.81 49.92 20.30 52.80 20.02 55.91 C 18.77 65.10 19.37 74.94 23.72 83.29 C 27.14 89.87 33.66 94.38 40.73 96.28 C 48.91 98.64 57.51 97.45 65.71 95.87 C 66.04 95.78 66.69 95.61 67.02 95.53 C 68.67 95.20 70.32 94.85 71.96 94.46 C 73.19 94.28 74.42 94.10 75.65 93.94 L 75.77 93.57 C 80.50 92.82 85.16 91.74 89.86 90.85 C 90.16 90.80 90.77 90.71 91.07 90.66 C 95.47 89.74 99.92 89.05 104.35 88.28 C 104.79 88.27 105.68 88.24 106.12 88.22 L 106.99 87.56 L 107.72 87.94 C 115.12 86.87 122.91 85.68 130.22 87.86 C 139.72 90.88 146.57 100.88 145.41 110.87 C 144.75 119.80 138.94 127.09 136.57 135.51 L 135.59 135.73 L 136.05 136.73 C 133.32 143.89 130.46 151.40 124.55 156.62 C 118.91 161.95 110.80 164.41 103.13 163.25 C 97.11 162.35 91.15 159.88 84.97 161.04 C 78.67 162.14 72.44 164.74 65.93 163.68 C 56.54 162.56 49.52 153.22 49.63 144.03 C 49.76 138.72 53.72 134.65 57.84 131.82 C 63.74 128.16 69.89 124.85 76.33 122.25 C 78.91 121.19 83.13 120.79 84.26 124.04 C 84.73 127.19 82.01 129.53 80.70 132.14 L 80.14 132.12 C 78.92 134.74 76.86 137.71 78.35 140.65 C 80.21 144.04 84.46 145.02 88.03 145.15 C 97.75 145.20 107.41 137.77 108.96 128.02 C 110.27 119.30 103.47 110.78 95.02 109.11 C 87.25 107.63 79.22 108.29 71.49 109.72 C 60.44 111.77 49.17 115.50 37.87 113.04 C 26.92 110.87 17.41 102.99 13.20 92.67 C 7.35 79.20 10.01 62.96 18.71 51.34 L 18.68 51.08 Z" />
</g>
<g id="#2f9be0ff">
<path fill="#2f9be0" opacity="1.00" d=" M 188.00 49.42 C 194.03 50.74 200.02 52.24 206.00 53.76 C 205.07 57.15 204.15 60.54 203.30 63.95 C 197.18 62.72 191.10 61.32 185.00 59.98 C 186.01 56.46 187.01 52.94 188.00 49.42 Z" />
<path fill="#2f9be0" opacity="1.00" d=" M 342.17 49.42 C 345.78 49.49 349.38 49.89 352.99 50.13 C 353.30 50.10 353.92 50.04 354.23 50.01 C 354.75 50.16 355.79 50.46 356.31 50.61 C 355.25 69.07 354.84 87.58 355.47 106.07 C 350.65 106.06 345.83 106.07 341.01 106.07 C 340.48 88.97 340.18 71.79 341.71 54.74 L 341.11 53.88 L 342.37 53.24 L 341.36 52.59 L 341.83 52.06 C 341.91 51.40 342.08 50.08 342.17 49.42 Z" />
<path fill="#2f9be0" opacity="1.00" d=" M 214.47 61.61 C 218.12 61.93 221.82 61.79 225.45 62.29 L 226.04 63.60 C 231.84 61.61 238.52 62.38 243.40 66.21 C 248.66 62.75 255.30 60.89 261.49 62.69 C 265.57 63.84 268.63 67.24 270.12 71.11 C 272.48 77.06 272.05 83.66 271.29 89.89 C 271.25 90.19 271.16 90.78 271.12 91.08 C 270.26 96.27 268.79 101.33 266.92 106.24 C 262.95 105.34 258.98 104.41 255.01 103.51 C 256.06 99.28 257.07 95.05 257.97 90.79 C 258.67 86.41 259.81 81.80 258.42 77.45 C 257.56 74.74 254.19 75.09 252.09 75.91 C 249.11 77.03 247.99 80.26 246.79 82.92 C 244.66 82.66 242.52 82.40 240.39 82.13 C 238.88 81.96 237.38 81.79 235.87 81.63 C 236.09 79.26 235.94 75.79 232.88 75.46 C 230.71 75.32 226.57 74.81 226.28 77.86 C 225.33 86.02 227.10 94.28 229.99 101.90 C 228.17 102.39 226.36 102.89 224.54 103.38 C 223.41 103.67 222.28 103.95 221.15 104.24 C 220.09 104.53 219.03 104.83 217.98 105.12 C 216.71 101.91 215.72 98.58 215.24 95.15 C 213.60 84.07 212.95 72.75 214.47 61.61 Z" />
<path fill="#2f9be0" opacity="1.00" d=" M 279.66 62.01 C 283.96 62.86 288.62 62.76 292.51 65.01 C 302.02 60.53 314.19 60.86 322.75 67.26 C 332.94 74.77 333.69 91.90 324.08 100.18 C 316.38 106.96 304.56 107.95 295.40 103.70 C 294.92 103.42 293.97 102.85 293.50 102.57 C 294.50 106.10 296.10 109.44 297.07 112.98 C 292.93 114.49 288.68 115.69 284.44 116.88 C 282.01 112.55 280.50 107.78 279.59 102.91 C 277.03 89.44 276.80 75.45 279.66 62.01 M 290.43 80.29 C 290.41 82.10 290.41 83.90 290.39 85.71 C 295.85 91.35 304.34 95.37 312.11 92.26 C 317.47 90.46 319.30 83.23 316.10 78.80 C 313.77 75.77 309.68 74.81 306.03 74.94 C 300.46 75.21 295.02 77.15 290.43 80.29 Z" />
<path fill="#2f9be0" opacity="1.00" d=" M 378.01 65.08 C 388.56 59.63 402.63 61.47 411.08 69.95 C 415.94 74.76 417.54 83.01 413.97 89.00 C 411.49 92.97 406.37 94.02 402.01 93.57 C 394.33 92.78 386.80 90.86 379.38 88.78 L 379.31 89.80 L 379.80 89.65 C 384.30 93.26 390.22 94.09 395.81 94.22 C 395.43 98.24 395.05 102.26 394.65 106.28 C 387.03 106.07 378.69 105.51 372.49 100.54 C 366.74 95.97 365.19 88.01 365.84 81.05 C 366.51 73.93 371.90 68.25 378.01 65.08 M 382.24 78.63 C 385.57 79.15 388.85 79.91 392.11 80.74 C 395.80 81.51 399.50 82.40 403.30 82.41 C 403.44 76.59 396.74 74.66 392.03 74.86 C 388.64 75.23 384.34 75.60 382.24 78.63 Z" />
<path fill="#2f9be0" opacity="1.00" d=" M 187.31 67.34 C 191.84 67.21 196.37 67.12 200.90 66.99 C 201.07 71.78 201.00 76.61 201.88 81.33 L 201.14 81.87 L 202.25 82.41 L 201.54 83.19 L 202.01 83.74 C 202.24 87.33 202.75 90.89 203.18 94.45 C 203.25 94.83 203.38 95.58 203.45 95.96 C 203.81 98.75 204.22 101.54 204.66 104.32 C 200.37 105.05 196.08 105.78 191.79 106.50 C 189.66 97.46 188.80 88.20 187.90 78.98 L 188.24 78.29 L 187.31 77.76 L 187.95 77.37 C 187.48 74.04 187.36 70.69 187.31 67.34 Z" />
</g>
<g id="#9f2728f5">
<path fill="#9f2728" opacity="0.96" d=" M 227.15 133.30 C 227.88 133.56 228.61 133.83 229.35 134.10 C 230.37 139.89 236.33 142.85 241.46 144.34 C 241.23 144.65 240.78 145.28 240.55 145.59 C 240.16 145.89 239.38 146.50 239.00 146.80 C 234.33 144.97 230.46 141.39 227.91 137.10 C 225.30 141.48 221.52 144.96 217.36 147.84 C 216.76 147.32 215.54 146.28 214.94 145.75 C 220.45 143.34 224.94 138.92 227.15 133.30 Z" />
<path fill="#9f2728" opacity="0.96" d=" M 276.21 133.54 C 277.08 133.63 277.95 133.73 278.82 133.83 C 278.53 136.29 278.43 138.77 278.41 141.25 C 279.10 141.23 280.48 141.20 281.18 141.18 C 281.17 141.72 281.17 142.80 281.17 143.34 C 280.49 143.34 279.14 143.33 278.47 143.33 C 278.47 148.74 278.37 154.16 278.66 159.56 C 278.03 159.55 276.77 159.51 276.14 159.50 C 276.52 154.09 276.40 148.67 276.38 143.26 C 275.57 143.30 273.94 143.40 273.13 143.44 C 273.11 142.89 273.07 141.79 273.05 141.23 C 273.89 141.25 275.58 141.28 276.42 141.29 C 276.40 138.71 276.33 136.12 276.21 133.54 Z" />
<path fill="#9f2728" opacity="0.96" d=" M 190.82 139.35 C 191.06 137.53 191.22 135.70 191.68 133.92 C 192.35 133.94 193.68 133.96 194.35 133.97 C 193.82 135.74 193.29 137.52 192.78 139.30 C 194.54 139.28 196.30 139.26 198.06 139.24 C 198.04 140.91 198.04 142.58 198.07 144.26 C 200.77 141.23 201.95 137.29 202.98 133.45 C 203.69 133.68 205.11 134.14 205.82 134.36 C 205.04 135.91 204.28 137.47 203.53 139.03 C 206.23 139.06 208.93 139.05 211.63 139.01 C 211.14 144.88 211.14 150.80 210.39 156.64 C 210.01 159.42 206.58 159.41 204.48 160.06 C 204.01 159.05 203.54 158.04 203.06 157.03 C 204.65 156.99 206.23 156.94 207.82 156.88 C 208.62 151.60 208.65 146.26 209.01 140.95 C 206.95 140.94 204.89 140.94 202.84 140.94 C 201.50 142.71 200.97 146.67 198.00 145.24 C 198.04 149.85 198.00 154.46 198.08 159.08 C 195.92 159.30 195.29 158.01 195.45 156.08 C 193.67 156.09 191.88 156.09 190.10 156.10 C 190.11 156.84 190.14 158.31 190.15 159.05 C 189.53 159.04 188.29 159.04 187.67 159.03 C 187.74 152.43 187.77 145.82 187.61 139.21 C 188.41 139.25 190.02 139.31 190.82 139.35 M 190.09 141.14 C 190.09 143.09 190.09 145.05 190.09 147.00 C 191.94 146.99 193.80 146.99 195.66 146.98 C 195.65 145.03 195.65 143.09 195.64 141.14 C 193.79 141.14 191.94 141.14 190.09 141.14 M 190.09 148.77 C 190.09 150.59 190.09 152.42 190.09 154.25 C 191.94 154.25 193.80 154.25 195.66 154.25 C 195.65 152.42 195.64 150.59 195.64 148.77 C 193.78 148.76 191.94 148.76 190.09 148.77 Z" />
<path fill="#9f2728" opacity="0.96" d=" M 255.74 133.68 C 256.59 133.76 258.27 133.92 259.12 134.00 C 256.62 143.02 261.62 153.49 270.73 156.35 C 269.84 157.24 268.95 158.14 268.08 159.05 C 262.64 155.94 258.22 150.72 257.50 144.32 C 256.47 150.67 252.47 156.09 247.28 159.73 C 246.33 159.05 245.38 158.37 244.43 157.70 C 248.35 155.79 251.81 152.78 253.65 148.78 C 255.87 144.08 255.90 138.77 255.74 133.68 Z" />
<path fill="#9f2728" opacity="0.96" d=" M 288.65 133.50 C 289.24 133.53 290.44 133.61 291.04 133.65 C 290.98 134.49 290.85 136.16 290.78 137.00 C 291.65 137.02 293.40 137.05 294.27 137.06 C 293.82 136.06 293.39 135.05 292.97 134.05 C 294.82 133.88 295.94 135.11 296.02 136.89 C 296.81 136.90 298.40 136.92 299.19 136.93 C 299.19 137.42 299.19 138.40 299.19 138.89 C 296.30 138.79 293.40 138.77 290.51 138.84 C 290.91 142.11 294.85 140.19 297.02 140.59 C 296.92 143.64 297.16 146.71 296.87 149.76 C 296.53 150.01 295.84 150.51 295.50 150.77 C 295.46 147.74 289.97 147.88 290.63 151.04 C 290.16 150.98 289.23 150.86 288.76 150.79 C 289.32 148.22 286.88 148.81 285.19 148.72 C 284.89 150.13 283.95 150.86 282.57 150.92 C 282.65 147.46 282.68 144.01 282.57 140.56 C 284.66 140.62 286.76 140.66 288.86 140.68 C 288.81 140.20 288.72 139.24 288.67 138.76 C 286.23 138.79 283.78 138.83 281.34 138.86 L 281.40 136.94 C 283.86 136.99 286.31 137.02 288.77 137.03 C 288.74 136.14 288.68 134.38 288.65 133.50 M 284.31 142.44 C 284.48 142.82 284.81 143.57 284.98 143.94 C 286.41 143.86 287.84 143.77 289.28 143.66 C 288.39 141.67 286.00 142.64 284.31 142.44 M 290.33 143.75 C 292.04 143.80 293.76 143.79 295.47 143.71 C 294.27 141.74 291.51 141.80 290.33 143.75 M 283.98 146.77 C 285.80 146.90 287.61 146.90 289.43 146.81 C 288.22 144.85 285.39 145.28 283.98 146.77 M 290.28 146.87 C 292.01 146.95 293.74 146.94 295.48 146.86 C 294.28 144.92 291.51 145.04 290.28 146.87 Z" />
<path fill="#9f2728" opacity="0.96" d=" M 313.86 133.77 C 315.97 133.55 317.05 134.84 317.69 136.67 C 320.79 137.06 323.93 136.73 327.04 136.64 C 327.00 138.32 326.98 140.00 326.94 141.68 C 326.25 141.66 324.85 141.63 324.15 141.62 C 324.18 140.89 324.23 139.42 324.25 138.69 C 320.95 138.69 317.65 138.54 314.36 138.70 C 313.28 139.19 310.86 140.66 314.46 141.17 L 312.31 141.42 C 316.04 141.83 319.79 141.42 323.53 141.46 C 321.90 143.67 319.98 145.62 317.91 147.40 C 321.37 148.37 324.92 148.93 328.51 149.18 C 327.99 151.84 325.82 151.89 323.56 151.44 C 323.57 154.11 323.61 156.78 323.69 159.46 C 323.20 159.48 322.22 159.52 321.72 159.55 C 321.13 158.40 320.22 157.87 318.98 157.95 C 315.21 157.73 311.34 157.75 307.83 159.31 C 307.88 156.62 307.87 153.94 307.78 151.26 C 306.61 151.51 305.45 151.77 304.29 152.03 C 303.86 151.50 303.00 150.43 302.58 149.90 C 306.17 149.39 309.72 148.61 313.17 147.47 C 312.13 146.47 311.09 145.48 310.05 144.49 C 308.55 145.73 306.96 147.19 305.15 145.46 C 306.85 144.02 308.55 142.57 310.23 141.11 C 310.62 140.26 310.99 139.42 311.36 138.56 C 310.16 138.60 307.78 138.69 306.59 138.73 C 306.60 139.46 306.63 140.93 306.64 141.67 C 305.71 141.61 304.79 141.55 303.87 141.50 C 303.93 139.88 304.00 138.27 304.06 136.66 C 307.60 136.83 311.14 136.85 314.69 136.84 C 314.41 135.82 314.13 134.79 313.86 133.77 M 311.57 143.34 C 312.96 144.36 314.37 145.36 315.79 146.34 C 316.97 145.33 318.15 144.33 319.31 143.32 C 316.73 143.29 314.15 143.29 311.57 143.34 M 315.29 148.43 C 314.32 148.82 313.35 149.21 312.39 149.60 C 311.44 150.07 310.50 150.56 309.58 151.06 C 313.82 151.29 318.08 151.18 322.33 151.16 L 321.65 150.34 L 321.10 150.63 C 319.17 149.88 317.23 149.15 315.29 148.43 M 310.15 152.98 C 310.16 154.12 310.18 155.27 310.20 156.42 C 313.75 156.38 317.31 156.56 320.87 156.35 C 321.05 155.22 321.20 154.10 321.31 152.97 C 317.59 152.95 313.87 152.95 310.15 152.98 Z" />
<path fill="#9f2728" opacity="0.96" d=" M 226.56 142.56 C 227.33 142.63 228.87 142.77 229.64 142.84 C 229.02 148.54 229.33 154.28 229.41 160.00 C 228.70 160.00 227.26 160.00 226.55 160.00 C 226.75 154.19 226.74 148.37 226.56 142.56 Z" />
<path fill="#9f2728" opacity="0.96" d=" M 201.29 147.03 C 201.65 146.64 202.37 145.86 202.73 145.47 C 203.87 147.35 204.95 149.28 206.00 151.22 C 203.03 153.09 202.17 149.07 201.29 147.03 Z" />
<path fill="#9f2728" opacity="0.96" d=" M 293.91 150.07 C 295.45 152.03 297.79 152.23 300.11 152.13 C 300.10 152.59 300.09 153.52 300.08 153.98 C 298.54 153.98 297.00 153.99 295.47 154.01 C 295.42 155.72 295.37 157.42 295.30 159.13 C 293.74 159.37 292.18 159.56 290.62 159.60 L 291.33 157.90 L 289.65 157.74 C 290.79 157.53 291.94 157.33 293.10 157.14 C 293.15 156.32 293.27 154.68 293.32 153.86 C 290.89 153.86 288.45 153.86 286.02 153.89 C 286.58 154.62 287.71 156.08 288.28 156.81 C 286.65 158.42 284.82 157.86 284.32 155.52 C 284.79 155.06 285.72 154.15 286.18 153.69 C 284.12 153.83 282.07 153.94 280.01 154.04 C 280.01 153.52 280.01 152.48 280.01 151.96 C 284.28 152.02 288.56 152.35 292.82 151.92 C 293.09 151.46 293.63 150.53 293.91 150.07 Z" />
</g>
</svg>
